<svg aria-hidden="true" style="position: absolute; width: 0; height: 0; overflow: hidden;" version="1.1" xmlns="http://www.w3.org/2000/svg" xmlns:xlink="http://www.w3.org/1999/xlink">
<defs>
<symbol id="bulb" viewBox="0 0 32 32">
<path stroke-linejoin="round" stroke-linecap="round" stroke-miterlimit="4" stroke-width="0.6737" d="M11.235 7.387l0.681 0.013c0.022 0 0.047-0.008 0.064 0.001 0.194 0.102 0.416 0.064 0.617 0.128 0.236 0.075 0.475 0.144 0.706 0.233 0.559 0.214 1.076 0.501 1.529 0.897 0.45 0.393 0.859 0.819 1.173 1.334 0.148 0.244 0.288 0.492 0.399 0.751 0.1 0.236 0.183 0.478 0.248 0.727 0.040 0.15 0.050 0.307 0.106 0.452 0.018 0.045 0.030 0.093 0.039 0.141 0.068 0.418 0.068 0.839 0.044 1.258-0.015 0.226-0.048 0.45-0.1 0.67-0.043 0.19-0.098 0.376-0.148 0.564-0.133 0.487-0.35 0.911-0.638 1.278l0.006-0.008c-0.216 0.28-0.45 0.544-0.665 0.824-0.261 0.337-0.475 0.707-0.635 1.102-0.098 0.242-0.197 0.486-0.256 0.736-0.054 0.228-0.155 0.45-0.148 0.691-0.001 0.042-0.013 0.081-0.031 0.116l0.001-0.001c-0.039 0.088-0.044 0.177-0.051 0.271-0.011 0.155-0.046 0.312-0.118 0.448-0.096 0.179-0.258 0.263-0.471 0.261-0.604-0.006-1.208 0.009-1.811-0.008-0.198-0.006-0.394 0.003-0.591 0.006-0.088 0.001-0.176 0.006-0.258-0.037-0.010-0.007-0.022-0.011-0.035-0.011-0.011 0-0.021 0.003-0.030 0.008l0-0c-0.108 0.056-0.229 0.041-0.346 0.041-0.6 0-1.199-0.002-1.799 0.002-0.112 0-0.183-0.032-0.247-0.128-0.123-0.186-0.16-0.391-0.195-0.605-0.030-0.19-0.040-0.385-0.12-0.567-0.044-0.098-0.030-0.213-0.062-0.322-0.089-0.304-0.183-0.604-0.301-0.897-0.229-0.567-0.573-1.059-0.974-1.518-0.328-0.375-0.634-0.769-0.81-1.244-0.096-0.241-0.188-0.536-0.259-0.839l-0.009-0.045c-0.049-0.223-0.077-0.448-0.114-0.671-0.062-0.37-0.050-0.746 0-1.116 0.040-0.307 0.096-0.614 0.182-0.911 0.079-0.272 0.174-0.542 0.302-0.798 0.193-0.39 0.407-0.764 0.677-1.108 0.395-0.497 0.858-0.918 1.381-1.255l0.022-0.014c0.244-0.161 0.502-0.297 0.771-0.409 0.276-0.11 0.555-0.224 0.847-0.283 0.36-0.072 0.716-0.177 1.091-0.147 0.106 0.008 0.214-0.007 0.321-0.011M8.537 20.271c-0.022 0.059-0.053 0.11-0.090 0.155l0.001-0.001c-0.085 0.1-0.11 0.215-0.106 0.347 0.008 0.274 0.203 0.475 0.478 0.475h4.83c0.003-0 0.006-0 0.009-0 0.188 0 0.348 0.116 0.414 0.28l0.001 0.003c0.079 0.191 0.042 0.392-0.089 0.528-0.096 0.099-0.205 0.144-0.348 0.144-0.819-0.002-1.788-0.004-2.757-0.004-0.576 0-1.151 0-1.727 0.001l0.091-0c-0.291 0-0.501 0.21-0.501 0.501 0 0.274 0.212 0.475 0.501 0.475h3.776c0.332 0 0.565 0.295 0.488 0.616-0.047 0.189-0.212 0.327-0.41 0.335l-0.001 0c-0.878 0.028-1.756 0.007-2.633 0.010-0.162 0-0.313 0.028-0.448 0.108-0.068 0.041-0.116 0.039-0.169-0.004s-0.119-0.073-0.191-0.083l-0.002-0"></path>
<path stroke-linejoin="round" stroke-linecap="round" stroke-miterlimit="4" stroke-width="0.6737" d="M11.582 15.299c0.004 0.217-0.068 0.426-0.059 0.642 0.002 0.043-0.005 0.086-0.005 0.128v4.136"></path>
<path stroke-linejoin="round" stroke-linecap="round" stroke-miterlimit="4" stroke-width="0.6737" d="M11.838 15.094c0-0.228 0.148-0.371 0.296-0.514 0.15-0.146 0.331-0.262 0.531-0.337l0.011-0.003c0.117-0.042 0.264-0.064 0.382 0.021 0.126 0.091 0.157 0.222 0.117 0.371-0.027 0.1-0.103 0.159-0.18 0.219-0.119 0.094-0.259 0.141-0.396 0.198-0.135 0.056-0.283 0.042-0.414 0.108-0.076 0.038-0.167 0.028-0.242-0.012-0.093-0.050-0.166-0.040-0.232 0.040-0.077 0.096-0.164 0.101-0.284 0.070-0.071-0.018-0.152-0.028-0.235-0.028-0.094 0-0.185 0.013-0.271 0.037l0.007-0.002c-0.096 0.024-0.121 0.095-0.102 0.179 0.053 0.233 0.064 0.469 0.064 0.707-0.001 1.353-0.001 2.706 0 4.059M10.567 15.081c-0.021-0.244-0.172-0.407-0.347-0.551-0.151-0.125-0.316-0.234-0.502-0.291-0.118-0.036-0.254-0.056-0.371 0.022-0.108 0.071-0.159 0.179-0.14 0.307 0.022 0.148 0.13 0.242 0.244 0.32 0.185 0.126 0.396 0.185 0.615 0.22 0.026 0.004 0.056 0.001 0.076 0.014 0.149 0.095 0.288 0.051 0.422-0.033l0.272 0.212M9.449 3.122c0.002 0.096 0.017 0.192 0.045 0.285 0.050 0.173 0.058 0.358 0.084 0.538 0.004 0.030-0.002 0.058 0.010 0.091 0.076 0.202 0.082 0.42 0.132 0.628 0.053 0.217 0.085 0.44 0.126 0.658 0.034 0.18 0.077 0.364 0.094 0.549 0.011 0.125 0.069 0.244 0.061 0.373M13.727 3.032c0.048 0.134 0.034 0.26-0.005 0.4-0.035 0.128-0.057 0.268-0.095 0.393-0.059 0.192-0.104 0.388-0.154 0.582-0.084 0.324-0.179 0.647-0.258 0.973-0.037 0.149-0.059 0.308-0.125 0.455-0.059 0.13-0.072 0.281-0.104 0.419-0.094 0.011-0.185-0.013-0.274 0.015M21.421 12.923c-0.223-0.024-0.446 0-0.668-0.004-0.381-0.008-0.763 0.005-1.143-0.003-0.112-0.002-0.244-0.004-0.377-0.004-0.233 0-0.465 0.004-0.697 0.013l0.033-0.001c-0.103 0.003-0.205-0.032-0.309-0.007M4.131 12.917c-0.253-0.016-0.504-0.027-0.758 0.003-0.204 0.024-0.412-0.027-0.616-0.019-0.169 0.007-0.366 0.012-0.565 0.012s-0.397-0.004-0.593-0.012l0.028 0.001c-0.209-0.009-0.42 0.014-0.629 0.023M20.214 8.71c-0.488 0.227-0.977 0.452-1.465 0.681-0.386 0.182-0.771 0.368-1.156 0.552M2.551 8.048c0.088-0.026 0.131 0.055 0.191 0.087 0.405 0.215 0.798 0.45 1.198 0.674 0.368 0.205 0.734 0.416 1.103 0.619 0.044 0.024 0.094 0.035 0.141 0.052M19.931 17.779c-0.135 0.009-0.228-0.091-0.331-0.147-0.512-0.279-1.012-0.579-1.52-0.867-0.254-0.144-0.513-0.279-0.77-0.418M5.069 16.359c9.072-4.764 8.45-4.408 7.828-4.052l-9.73 5.125c-0.195 0.11-0.395 0.212-0.589 0.323-0.057 0.032-0.112 0.018-0.168 0.024M7.214 7.323c-0.023-0.139-0.136-0.224-0.209-0.332-0.27-0.395-0.553-0.782-0.832-1.171-0.218-0.304-0.441-0.605-0.651-0.915-0.041-0.061-0.080-0.060-0.132-0.061M17.587 5.1c0.052 0.167-0.056 0.275-0.148 0.384-0.298 0.353-0.601 0.701-0.898 1.054-0.278 0.331-0.548 0.668-0.824 1-0.032 0.038-0.052 0.088-0.052 0.142 0 0.009 0.001 0.018 0.002 0.027l-0-0.001M9.95 24.291c0.012 0.143 0.071 0.278 0.168 0.384 0.125 0.136 0.233 0.28 0.308 0.451 0.098 0.223 0.249 0.396 0.487 0.475 0.283 0.094 0.558 0.070 0.807-0.093 0.099-0.065 0.18-0.162 0.247-0.265 0.057-0.087 0.088-0.179 0.076-0.283M13.354 5.961c-0.077-0.003-0.155 0.009-0.231-0.013"></path>
<path stroke-linejoin="round" stroke-linecap="round" stroke-miterlimit="4" stroke-width="0.6737" d="M10.994 25.631v2.212c0 0 0 0 0 0 0 1.033 0.837 1.87 1.87 1.87 0.001 0 0.002 0 0.004 0l14.783-0.026c0.785-0 1.421-0.637 1.421-1.422 0-0.001 0-0.002 0-0.003v0l-0.003-2.161c0.158-0.1 0.251-0.252 0.326-0.421 0.11-0.248 0.234-0.489 0.362-0.728 0.054-0.099 0.089-0.208 0.102-0.32 0.003-0.028-0.008-0.065 0.016-0.080 0.227-0.148 0.287-0.406 0.403-0.622 0.317-0.592 0.611-1.194 0.913-1.794 0.022-0.043 0.052-0.096 0.044-0.139-0.044-0.229 0.064-0.441 0.064-0.665-0.002-4.041-0.002-8.083 0-12.125 0-0.128-0.009-0.252-0.050-0.372-0.007-0.017-0.011-0.036-0.011-0.057 0-0.009 0.001-0.018 0.002-0.026l-0 0.001c0.111-0.498 0.087-0.998-0.004-1.492-0.138-0.748-0.807-1.38-1.559-1.491-0.462-0.067-0.93-0.084-1.386 0.034-0.813 0.218-1.408 0.931-1.445 1.789l-0 0.004c-0.010 0.28-0.001 0.56-0.002 0.839 0 0.112-0.006 0.224 0.048 0.326 0.016 0.029 0.022 0.059 0.009 0.082-0.087 0.144-0.056 0.302-0.056 0.455-0.001 3.995-0.001 7.991-0.001 11.986 0 0.147-0.012 0.294 0.058 0.432 0.005 0.010 0.025 0.008 0.014 0.035-0.084 0.21 0.030 0.385 0.117 0.558 0.336 0.672 0.664 1.348 1.034 2 0.126 0.222 0.221 0.449 0.32 0.68 0.118 0.276 0.288 0.528 0.406 0.805 0.035 0.076 0.086 0.145 0.149 0.2 0.076 0.071 0.168 0.136 0.131 0.268"></path>
<path stroke-linejoin="round" stroke-linecap="round" stroke-miterlimit="4" stroke-width="0.6737" d="M28.229 10.665c0.052 0.034 0.046 0.088 0.046 0.14v8.791c0 0.105-0.016 0.213 0.094 0.28M29.85 10.747v9.048M26.924 8.8c0.365-0.021 0.73-0.002 1.095-0.002 0.641 0.002 1.283-0.017 1.924-0.006 0.42 0.007 0.84-0.007 1.259-0.004M26.947 21.741c0.109-0.008 0.218-0.022 0.327-0.022 1.189-0.002 2.378-0.002 3.568-0.001 0.122 0 0.243 0.001 0.361 0.035M29.85 24.574c-0.089-0.071-0.192-0.094-0.303-0.094-0.327 0.001-0.653 0.002-0.98 0-0.002-0-0.005-0-0.007-0-0.105 0-0.204 0.031-0.286 0.084l0.002-0.001"></path>
</symbol>
<symbol id="hends" viewBox="0 0 32 32">
<path stroke-linejoin="round" stroke-linecap="round" stroke-miterlimit="4" stroke-width="0.6809" d="M4.534 8.179c-1.912-0.802-2.643-0.303-2.643 1.802 0 1.642 0.095 3.291-0.024 4.924-0.145 1.996 0.677 3.589 1.518 5.321 1.075 2.211 2.682 3.878 4.413 5.472 1.008 0.928 1.48 1.927 1.309 3.267-0.035 0.274 0.035 0.562 0.061 0.9h5.697c0-2.101 0.021-4.144-0.021-6.187-0.007-0.324-0.237-0.698-0.469-0.953-1.905-2.098-3.852-4.158-5.742-6.269-0.358-0.4-0.783-0.453-1.263-0.544-0.364 0.332-0.672 0.782-0.915 1.279M26.16 17.189l-0.757-1.168c-1.118-0.34-1.627 0.544-2.091 1.079-1.452 1.672-2.982 3.269-4.49 4.886-0.746 0.8-1.16 1.631-1.096 2.773 0.093 1.678 0.024 3.364 0.024 5.104h5.848c-0.868-2.83 1.184-4.192 2.82-5.688 2.017-1.844 2.88-4.364 4.196-6.622 0.192-0.33 0.1-0.648 0.103-0.966 0.016-2.203 0.009-4.405 0.009-6.608 0-2.105-0.732-2.604-2.643-1.802M16.308 2.412c-0.32-0.2-0.652-0.384-0.96-0.603-1.949-1.384-3.782-0.67-4.913 0.616-1.211 1.376-1.271 3.518 0.123 4.896 1.835 1.813 3.786 3.507 5.744 5.305 1.246-1.12 2.432-2.179 3.608-3.248 0.716-0.656 1.342-1.243 1.961-1.838l-0.038 0.037c1.465-1.396 1.782-3.584 0.222-5.267-1.386-1.494-3.827-1.41-5.744 0.098"></path>
<path stroke-linejoin="round" stroke-linecap="round" stroke-miterlimit="4" stroke-width="0.6809" d="M7.297 15.868c-0.266-1.797-0.122-3.606-0.085-5.406 0.015-0.725-0.086-1.439-0.051-2.164 0.047-0.982-0.381-1.441-1.185-1.441-0.74 0-1.406 0.721-1.309 1.56 0.239 2.082 0.024 4.168 0.114 6.248 0.016 0.366-0.112 0.732 0.222 1.092 1.788 1.922 3.028 4.289 4.937 6.116M25.318 15.868c0.266-1.797 0.123-3.606 0.085-5.406-0.015-0.725 0.086-1.439 0.051-2.164-0.048-0.982 0.381-1.441 1.185-1.441 0.74 0 1.406 0.721 1.309 1.56-0.239 2.082-0.024 4.168-0.114 6.248-0.016 0.366 0.112 0.732-0.222 1.092-1.788 1.922-3.027 4.289-4.937 6.116M11.803 19.352c0.393-1.428 0.177-2.887 0.145-4.324-0.020-0.928-0.747-1.117-2.128-0.722M22.795 14.306c-1.621-0.588-2.371-0.005-2.17 1.683 0.133 1.115-0.199 2.259 0.187 3.363"></path>
<path stroke-linejoin="round" stroke-linecap="round" stroke-miterlimit="4" stroke-width="0.6809" d="M9.34 16.949c0.397-1.139 0.229-2.318 0.24-3.484 0.005-0.601-0.057-1.209 0.012-1.801 0.197-1.688-0.552-2.272-2.173-1.683M25.198 9.981c-1.622-0.588-2.327-0.008-2.184 1.684 0.107 1.273 0.040 2.562 0.012 3.842-0.012 0.507 0.083 0.976 0.25 1.442"></path>
</symbol>
<symbol id="leaves" viewBox="0 0 32 32">
<path stroke-linejoin="round" stroke-linecap="round" stroke-miterlimit="4" stroke-width="0.7033" d="M25.873 28.023c0.070-0.256 0.234-0.45 0.426-0.617 1.346-1.166 2.423-2.551 3.282-4.103 0.824-1.487 1.383-3.081 1.654-4.757 0.188-1.16 0.26-2.33 0.184-3.518-0.111-1.732-0.478-3.387-1.134-4.989-0.703-1.715-1.69-3.24-2.941-4.603-0.951-1.036-2.018-1.929-3.214-2.662-1.66-1.018-3.445-1.711-5.371-2.065-0.827-0.159-1.779-0.249-2.751-0.249-0.434 0-0.863 0.018-1.288 0.053l0.056-0.004c-2.066 0.164-4.035 0.722-5.886 1.708-1.788 0.953-3.321 2.186-4.643 3.717-0.823 0.954-1.501 1.997-2.069 3.106-0.635 1.241-1.059 2.565-1.331 3.938-0.182 0.922-0.267 1.855-0.287 2.786-0.002 0.085-0.003 0.185-0.003 0.285 0 0.883 0.082 1.747 0.24 2.584l-0.013-0.086c0.294 1.611 0.808 3.157 1.586 4.6 0.586 1.075 1.235 2.004 1.975 2.852l-0.016-0.019c0.982 1.129 2.103 2.101 3.345 2.901l0.062 0.037c1.635 1.048 3.392 1.765 5.301 2.126 1.050 0.198 2.1 0.353 3.172 0.286"></path>
<path stroke-linejoin="round" stroke-linecap="round" stroke-miterlimit="4" stroke-width="0.7033" d="M19.647 10.233c0.139-0.316 0.090-0.633-0.043-0.926-0.29-0.638-0.605-1.252-0.998-1.847-0.342-0.519-0.687-1.046-1.053-1.554-0.256-0.355-0.552-0.683-0.848-1.006-0.304-0.331-1.014-0.347-1.345 0.003-0.644 0.681-1.266 1.403-1.72 2.214-0.344 0.612-0.819 1.152-1.041 1.839-0.124 0.383-0.288 0.75-0.26 1.163 0.015 0.223-0.186 0.354-0.205 0.58-0.105 1.331 0.326 2.456 1.291 3.36 0.707 0.663 1.561 1.019 2.586 1.010v11.563M20.343 15.415c0.128 0.229 0.17 0.472 0.156 0.735-0.055 1.033 0.073 2.061 0.087 3.093 0.008 0.597 0.436 0.982 1.033 1.043 0.99 0.101 1.984 0.090 2.977 0.074 0.014-0 0.030-0.001 0.046-0.001 0.307 0 0.598 0.074 0.854 0.204l-0.011-0.005M11.68 15.415c-0.129 0.229-0.171 0.472-0.157 0.735 0.056 1.033-0.058 2.062-0.085 3.093-0.015 0.595-0.436 0.98-1.035 1.043-0.965 0.102-1.933 0.085-2.9 0.074-0.012-0-0.026-0-0.040-0-0.336 0-0.654 0.073-0.941 0.204l0.014-0.006"></path>
<path stroke-linejoin="round" stroke-linecap="round" stroke-miterlimit="4" stroke-width="0.7033" d="M19.492 21.448c1.617 1.63 4.362 1.413 5.774-0.369 0.329-0.415 0.709-0.859 0.884-1.408 0.155-0.489 0.45-0.946 0.445-1.471-0.003-0.335 0.198-0.585 0.245-0.89 0.105-0.68 0.211-1.357 0.252-2.048 0.022-0.383 0.032-0.708-0.166-1.051-0.169-0.293-0.416-0.38-0.706-0.418-0.506-0.066-1.005 0.055-1.507 0.085-0.436 0.026-0.844 0.109-1.229 0.24l0.033-0.010c-0.764 0.259-1.596 0.257-2.327 0.642-0.293 0.155-0.612 0.265-0.801 0.553-0.030 0.047-0.073 0.083-0.124 0.104l-0.002 0.001c-1.172 0.375-1.573 1.399-1.829 2.41-0.338 1.34 0.005 2.584 1.018 3.59M12.569 21.409c1.436-1.369 1.495-3.71 0.199-5.264-0.281-0.338-0.532-0.67-1.010-0.738-0.168-0.023-0.188-0.261-0.347-0.344-0.744-0.385-1.48-0.789-2.361-0.733-0.002 0-0.004 0-0.007 0-0.041 0-0.079-0.015-0.108-0.039l0 0c-0.296-0.277-0.698-0.29-1.048-0.327-0.616-0.065-1.228-0.204-1.854-0.176-0.548 0.025-0.936 0.278-1.118 0.777-0.028 0.074-0.045 0.16-0.045 0.249 0 0.034 0.002 0.068 0.007 0.101l-0-0.004c0.128 0.783 0.11 1.586 0.305 2.36 0.006 0.025-0.007 0.055 0.001 0.077 0.309 0.852 0.344 1.789 0.81 2.592 0.108 0.186 0.184 0.388 0.385 0.508 0.062 0.037 0.133 0.081 0.165 0.186 0.252 0.832 0.944 1.209 1.658 1.547 1.455 0.688 3.244 0.388 4.33-0.732M16.050 13.056c0.358-0.037 0.638-0.203 0.894-0.461 0.657-0.658 1.334-1.296 2.008-1.937 0.191-0.181 0.387-0.361 0.672-0.431 0.343 0.373 0.347 0.79 0.273 1.283-0.087 0.579-0.224 1.137-0.531 1.615-0.768 1.198-1.839 1.928-3.355 1.941v-10.364"></path>
<path stroke-linejoin="round" stroke-linecap="round" stroke-miterlimit="4" stroke-width="0.7033" d="M23.049 14.37c0.152 0.51 0.051 1.031 0.076 1.547 0.023 0.478 0.050 0.935 0.338 1.361 0.215 0.317 0.486 0.441 0.824 0.452 0.567 0.018 1.134 0.010 1.702 0.002 0.199-0.002 0.392 0.017 0.58 0.080M8.973 14.37c-0.088 0.212-0.075 0.435-0.079 0.658-0.008 0.529 0.033 1.067-0.051 1.583-0.107 0.655-0.506 1.136-1.146 1.126-0.554-0.009-1.109 0.004-1.663-0.005-0.2-0.003-0.392 0.017-0.58 0.080M12.414 10.194c0.225 0.046 0.383 0.192 0.544 0.346 0.769 0.74 1.547 1.47 2.317 2.208 0.198 0.19 0.418 0.3 0.697 0.27M20.729 20.133c-1.289 1.289-2.597 2.561-3.858 3.876-0.485 0.505-1.235 0.505-1.72 0-1.262-1.315-2.569-2.587-3.858-3.876M25.273 25.199c0.007 0.671 0.017 1.341 0.017 2.011 0 0.223 0.041 0.421 0.148 0.623 0.070 0.135 0.157 0.146 0.275 0.199 0.842 0.377 1.733 0.149 2.596 0.241M26.646 14.255l-2.978 2.939M5.415 14.255l2.939 2.939M18.524 7.487c-0.607 0.363-1.011 0.949-1.543 1.397-0.281 0.237-0.544 0.476-0.933 0.498M13.575 7.525c0.587 0.44 1.086 0.977 1.62 1.475 0.229 0.214 0.469 0.356 0.779 0.381M8.625 17.503l2.359 2.319M23.398 17.503l-2.359 2.319"></path>
</symbol>
<symbol id="log" viewBox="0 0 32 32">
<path stroke-linejoin="round" stroke-linecap="round" stroke-miterlimit="4" stroke-width="0.6598" d="M18.249 25.113c-0.096-0.409-0.071-0.794 0.027-1.218 0.215-0.93 0.25-1.874 0.134-2.844-0.174-1.461-0.71-2.742-1.558-3.919-0.177-0.246-0.272-0.656-0.462-0.763-0.889-0.506-1.553-1.339-2.526-1.708-0.046-0.018-0.107-0.018-0.138-0.048-0.624-0.632-1.484-0.515-2.244-0.687-1.125-0.254-2.245-0.033-3.357 0.176-0.063 0.012-0.134 0.059-0.185 0.042-0.811-0.258-1.318 0.278-1.868 0.704-1.308 1.013-2.456 2.169-3.168 3.688-0.448 0.957-0.707 1.956-0.764 3.030-0.148 2.801 0.916 5.063 3.009 6.845 1.034 0.88 2.259 1.406 3.624 1.67 1.158 0.224 2.293 0.205 3.406-0.046 1.186-0.267 2.272-0.826 3.225-1.61 1.016-0.835 1.85-1.833 2.604-2.9 0.167-0.236 0.326-0.423 0.615-0.459s0.466-0.232 0.653-0.421c1.337-1.353 2.668-2.713 4.014-4.058 1.813-1.811 3.633-3.615 5.457-5.414 1.221-1.207 2.229-2.539 2.667-4.244 0.178-0.694 0.252-1.392 0.272-2.101 0.008-0.274-0.098-0.502-0.28-0.7"></path>
<path stroke-linejoin="round" stroke-linecap="round" stroke-miterlimit="4" stroke-width="0.6598" d="M25.294 13.776c0.356-0.151 0.534-0.492 0.792-0.748 1.543-1.537 3.003-2.995 4.461-4.454l0.021-0.021c0.14-0.14 0.295-0.279 0.467-0.37 0.413-0.217 0.614-0.55 0.508-0.985-0.779-3.199-2.69-5.398-5.882-6.279-2.912-0.803-5.594-0.167-7.773 1.952-3.438 3.341-6.79 6.77-10.191 10.153-0.288 0.287-0.398 0.615-0.461 0.986M13.49 21.941c-0.044 0.665-0.176 1.301-0.559 1.867-1.204 1.781-3.679 1.865-4.995 0.327-0.903-1.056-1.063-2.26-0.549-3.357 0.59-1.261 1.609-1.92 3.024-1.917h0.373"></path>
<path stroke-linejoin="round" stroke-linecap="round" stroke-miterlimit="4" stroke-width="0.6598" d="M26.928 5.797c-0.098 0.254-0.34 0.376-0.517 0.557-1.652 1.681-3.173 3.217-4.698 4.748l0.034-0.034c-1.747 1.75-3.479 3.476-5.216 5.196l-0.101 0.1M19.462 7.151c0.053 0.309-0.123 0.502-0.324 0.702-1.904 1.896-3.715 3.704-5.523 5.514l-0.034 0.034c-0.209 0.208-0.411 0.416-0.512 0.701M10.131 16.482c-0.577 0.115-1.162 0.15-1.731 0.361-1.897 0.704-3.108 2.085-3.508 3.985-0.632 2.997 0.961 5.799 4.080 6.591 2.372 0.602 4.611-0.288 6.008-2.448 0.457-0.706 0.715-1.482 0.805-2.33 0.202-1.907-0.449-3.484-1.835-4.752-0.909-0.832-2-1.318-3.258-1.362-0.172-0.006-0.342-0.030-0.513-0.046"></path>
<path stroke-linejoin="round" stroke-linecap="round" stroke-miterlimit="4" stroke-width="0.6598" d="M10.283 22.976c0.519 0 0.939-0.42 0.939-0.939s-0.42-0.939-0.939-0.939v0c-0.519 0-0.939 0.42-0.939 0.939s0.42 0.939 0.939 0.939v0z"></path>
</symbol>
<symbol id="map" viewBox="0 0 20 20">
<path d="M10 20s-7-9.13-7-13c0-3.866 3.134-7 7-7s7 3.134 7 7v0c0 3.87-7 13-7 13zM10 9c1.105 0 2-0.895 2-2s-0.895-2-2-2v0c-1.105 0-2 0.895-2 2s0.895 2 2 2v0z"></path>
</symbol>
<symbol id="wood" viewBox="0 0 20 20">
<path d="M5.33 12.77c-0.41 0.155-0.884 0.245-1.38 0.245-2.209 0-4-1.791-4-4 0-1.872 1.286-3.443 3.022-3.88l0.028-0.006v-0.13c0-0.001 0-0.003 0-0.004 0-2.209 1.791-4 4-4 0.621 0 1.209 0.142 1.734 0.394l-0.024-0.010c0.646-0.846 1.655-1.386 2.79-1.386 1.773 0 3.238 1.318 3.468 3.028l0.002 0.018c1.038 0.205 1.836 1.030 1.998 2.066l0.002 0.014c1.748 0.454 3.017 2.017 3.017 3.877 0 2.209-1.791 4-4 4-0.624 0-1.215-0.143-1.741-0.398l0.024 0.010c-0.541 0.869-1.317 1.548-2.238 1.957l-0.032 0.013v3.42l2 1v1h-8v-1l2-1v-3l-2.67-2.23zM5 10l3 3v-3h-3z"></path>
</symbol>
<symbol id="car" viewBox="0 0 20 20">
<path d="M2 14v-3h-1c-0.552 0-1-0.448-1-1v0c0-0.552 0.448-1 1-1v0h1l4-7h8l4 7h1c0.552 0 1 0.448 1 1v0c0 0.552-0.448 1-1 1v0h-1v6c0 0.552-0.448 1-1 1v0h-1c-0.552 0-1-0.448-1-1v0-1h-10v1c0 0.552-0.448 1-1 1v0h-1c-0.552 0-1-0.448-1-1v0-3zM15.86 9l-2.86-5h-6l-2.86 5h11.72zM5.5 14c0.828 0 1.5-0.672 1.5-1.5s-0.672-1.5-1.5-1.5v0c-0.828 0-1.5 0.672-1.5 1.5s0.672 1.5 1.5 1.5v0zM14.5 14c0.828 0 1.5-0.672 1.5-1.5s-0.672-1.5-1.5-1.5v0c-0.828 0-1.5 0.672-1.5 1.5s0.672 1.5 1.5 1.5v0z"></path>
</symbol>
<symbol id="star" viewBox="0 0 32 32">
<path d="M32 12.408l-11.056-1.607-4.944-10.018-4.944 10.018-11.056 1.607 8 7.798-1.889 11.011 9.889-5.199 9.889 5.199-1.889-11.011 8-7.798zM16 23.547l-6.983 3.671 1.334-7.776-5.65-5.507 7.808-1.134 3.492-7.075 3.492 7.075 7.807 1.134-5.65 5.507 1.334 7.776-6.983-3.671z"></path>
</symbol>
<symbol id="star-half" viewBox="0 0 32 32">
<path d="M32 12.408l-11.056-1.607-4.944-10.018-4.944 10.018-11.056 1.607 8 7.798-1.889 11.011 9.889-5.199 9.889 5.199-1.889-11.011 8-7.798zM16 23.547l-0.029 0.015 0.029-17.837 3.492 7.075 7.807 1.134-5.65 5.507 1.334 7.776-6.983-3.671z"></path>
</symbol>
</defs>
</svg>
